<svg xmlns="http://www.w3.org/2000/svg" width="346.667" height="346.667" preserveAspectRatio="xMidYMid meet" version="1.0" viewBox="0 0 260 260"><metadata>Created by potrace 1.11, written by Peter Selinger 2001-2013</metadata><g fill="#000" stroke="none"><path d="M0 1300 l0 -1300 1300 0 1300 0 0 1300 0 1300 -1300 0 -1300 0 0 -1300z m400 1000 l0 -100 100 0 100 0 0 100 0 100 100 0 100 0 0 -100 0 -100 100 0 100 0 0 100 0 100 100 0 100 0 0 -100 0 -100 -100 0 -100 0 0 -100 0 -100 100 0 100 0 0 -100 0 -100 -100 0 -100 0 0 -100 0 -100 100 0 100 0 0 -100 0 -100 -100 0 -100 0 0 100 0 100 -100 0 -100 0 0 -100 0 -100 -100 0 -100 0 0 100 0 100 -100 0 -100 0 0 -100 0 -100 -100 0 -100 0 0 100 0 100 100 0 100 0 0 100 0 100 -100 0 -100 0 0 100 0 100 100 0 100 0 0 100 0 100 -100 0 -100 0 0 100 0 100 100 0 100 0 0 -100z m2000 0 l0 -100 -500 0 -500 0 0 100 0 100 500 0 500 0 0 -100z m0 -400 l0 -100 -500 0 -500 0 0 100 0 100 500 0 500 0 0 -100z m0 -400 l0 -100 -500 0 -500 0 0 100 0 100 500 0 500 0 0 -100z m0 -400 l0 -100 -1100 0 -1100 0 0 100 0 100 1100 0 1100 0 0 -100z m0 -400 l0 -100 -1100 0 -1100 0 0 100 0 100 1100 0 1100 0 0 -100z m0 -400 l0 -100 -1100 0 -1100 0 0 100 0 100 1100 0 1100 0 0 -100z" transform="translate(0.000000,260.000000) scale(0.100000,-0.100000)"/><path d="M600 2100 l0 -100 -100 0 -100 0 0 -100 0 -100 100 0 100 0 0 -100 0 -100 100 0 100 0 0 100 0 100 100 0 100 0 0 100 0 100 -100 0 -100 0 0 100 0 100 -100 0 -100 0 0 -100z m200 -200 l0 -100 -100 0 -100 0 0 100 0 100 100 0 100 0 0 -100z" transform="translate(0.000000,260.000000) scale(0.100000,-0.100000)"/></g></svg>